<?xml version="1.0" encoding="UTF-8"?>
<svg xmlns="http://www.w3.org/2000/svg" xmlns:xlink="http://www.w3.org/1999/xlink" width="30px" height="20px" viewBox="0 0 30 20" version="1.1">
<defs>
<clipPath id="clip1">
  <path d="M 15 10 L 30 10 L 30 20 Z M 15 10 L 15 20 L 0 20 Z M 15 10 L 0 10 L 0 0 Z M 15 10 L 15 0 L 30 0 Z M 15 10 "/>
</clipPath>
</defs>
<g id="surface1">
<rect x="0" y="0" width="30" height="20" style="fill:rgb(0.392157%,12.941176%,41.176471%);fill-opacity:1;stroke:none;"/>
<path style="fill-rule:nonzero;fill:rgb(0%,0%,0%);fill-opacity:1;stroke-width:6;stroke-linecap:butt;stroke-linejoin:miter;stroke:rgb(100%,100%,100%);stroke-opacity:1;stroke-miterlimit:4;" d="M 0 0 L 50 30 M 50 0 L 0 30 " transform="matrix(0.6,0,0,0.666667,0,0)"/>
<g clip-path="url(#clip1)" clip-rule="nonzero">
<path style="fill-rule:nonzero;fill:rgb(0%,0%,0%);fill-opacity:1;stroke-width:4;stroke-linecap:butt;stroke-linejoin:miter;stroke:rgb(78.431373%,6.27451%,18.039216%);stroke-opacity:1;stroke-miterlimit:4;" d="M 0 0 L 50 30 M 50 0 L 0 30 " transform="matrix(0.6,0,0,0.666667,0,0)"/>
</g>
<path style="fill-rule:nonzero;fill:rgb(78.431373%,6.27451%,18.039216%);fill-opacity:1;stroke-width:2;stroke-linecap:butt;stroke-linejoin:miter;stroke:rgb(100%,100%,100%);stroke-opacity:1;stroke-miterlimit:4;" d="M -1.002604 10.998047 L 21.002604 10.998047 L 21.002604 -1.001953 L 28.997396 -1.001953 L 28.997396 10.998047 L 51.002604 10.998047 L 51.002604 19.001953 L 28.997396 19.001953 L 28.997396 31.001953 L 21.002604 31.001953 L 21.002604 19.001953 L -1.002604 19.001953 Z M -1.002604 10.998047 " transform="matrix(0.6,0,0,0.666667,0,0)"/>
</g>
</svg>
